<svg xmlns="http://www.w3.org/2000/svg" viewBox="0 0 800 520" role="img" aria-label="Colourful family outing illustration">
  <defs>
    <linearGradient id="sky" x1="0" y1="0" x2="1" y2="1"><stop stop-color="#aee0df"/><stop offset="1" stop-color="#fff0c8"/></linearGradient>
  </defs>
  <rect width="800" height="520" fill="url(#sky)"/>
  <circle cx="670" cy="100" r="58" fill="#ffd56a"/>
  <path d="M0 365C115 285 208 395 318 331S525 282 800 372V520H0Z" fill="#76b88a"/>
  <path d="M0 422C132 352 230 440 373 390S642 367 800 426V520H0Z" fill="#2f8a64"/>
  <path d="M123 348h150l-18-159h-94z" fill="#fffaf0"/><path d="M142 215h132l-66-76z" fill="#f08c70"/>
  <rect x="176" y="272" width="34" height="76" rx="16" fill="#24413a"/>
  <circle cx="537" cy="332" r="55" fill="#ffdfcc"/><circle cx="537" cy="265" r="46" fill="#24413a"/>
  <path d="M456 456c8-92 45-125 81-125s76 33 86 125z" fill="#f08c70"/>
  <circle cx="430" cy="397" r="31" fill="#ffdfcc"/><path d="M395 479c3-55 21-81 35-81s34 26 38 81z" fill="#ffd56a"/>
</svg>
